<!-- Generated by IcoMoon.io -->
<svg version="1.1" xmlns="http://www.w3.org/2000/svg" width="1024" height="1024" viewBox="0 0 1024 1024">
<g id="icomoon-ignore">
</g>
<path d="M560.004 100.465c12.301-1.319 26.569 1.261 38.417 4.625 26.803 7.609 48.572 23.907 61.5 47.167 13.427 23.84 16.021 51.706 7.164 77.333-11.247 31.604-35.375 47.477-65.498 62.083l0.333 92.208c21.534 6.118 42.487 13.066 62.042 23.625 44.928 24.272 75.657 65.189 88.542 111.751 13.623 48.832 5.871 100.723-21.542 144.247-25.143 39.45-65.216 68.587-113.207 79.753-62.703 14.596-115.9-1.229-169.792-31.083-23.823 23.731-47.355 47.744-70.584 72 10.385 22.822 13.845 46.784 6.958 71.040-6.732 23.71-24.567 44.032-47.375 56.043-25.559 13.478-54.688 15.927-82.708 8.457-27.809-7.415-51.2-23.462-64.792-47.582-13.378-23.714-14.507-51.516-5.833-76.834 9.868-28.77 29.994-46.477 58.25-59.627 30.403-11.076 55.531-7.458 85.208 2.5 24.715-24.23 47.988-49.685 72.958-73.707-27.44-50.142-36.31-92.868-22.042-148.126-31.072-13.517-61.035-29.252-92.125-42.79-16.61 16.111-36.909 27.174-60.75 30.916-28.439 4.459-58.457-2.773-81.833-18.334-23.154-15.633-38.384-39.462-42.125-65.875-3.84-25.617 3.392-53.865 21-74.083 18.156-20.848 46.342-33.43 74.792-36.208 27.952-2.537 55.846 5.422 77.5 22.083 27.689 21.609 35.684 48.486 39.042 80.5 29.466 16.832 63.213 29.803 93.917 44.834 39.949-44.005 69.146-57.902 127.373-74.626l0.043-91.458c-10.419-3.887-20.834-8.613-29.918-14.833-22.972-15.834-38.025-39.726-41.749-66.125-3.439-26.252 4.501-52.696 22.084-73.458 19.23-22.474 44.937-32.738 74.752-36.417zM555.546 451.089c-68.181 5.167-118.839 61.060-112.875 124.544 5.973 63.509 66.304 110.336 134.417 104.375 67.503-5.931 117.21-61.487 111.292-124.42-5.926-62.938-65.254-109.619-132.834-104.499z"></path>
<path d="M883.75 402.74c2.88-0.133 5.679-0.172 8.546 0.215 8.964 1.21 17.796 5.245 22.733 12.577 5.239 7.78 5.956 18.141 6.673 27.152 3.554 44.604 0.913 91.008 0.9 135.77-0.009 36.553 4.339 86.127-2.944 121.327-2.295 11.068-10.167 16.358-19.601 22.345-3.588 0.405-7.351 0.87-10.974 0.674-8.090-0.422-15.757-3.785-20.992-9.54-5.175-5.696-5.026-17.126-5.483-24.273-3.29-51.307-0.508-104.256-0.457-155.721 0.026-29.244-4.288-85.227 2.313-111.324 2.359-9.337 11.392-14.23 19.285-19.201z"></path>
<path d="M801.131 474.402c9.715 1.668 18.308 5.069 23.966 12.928 8.73 12.126 8.964 130.918 4.595 147.874-2.394 9.271-10.999 13.79-19.162 18.249-9.344-0.521-21.628-1.293-27.87-8.845-9.284-11.217-8.516-137.472-3.23-153.306 3.072-9.199 13.222-13.090 21.7-16.9z"></path>
</svg>
